<svg width="24" height="24" viewBox="0 0 24 24" fill="none" xmlns="http://www.w3.org/2000/svg">
<path d="M17.3029 6.28013C16.8599 6.28013 16.5212 6.64495 16.5212 7.06189V11.7785H12.5863V7.08795C12.5863 6.64495 12.2215 6.30619 11.8046 6.30619C11.3616 6.30619 11.0228 6.67101 11.0228 7.08795V11.8046H7.47883V7.08795C7.47883 6.64495 7.11401 6.30619 6.69707 6.30619C6.28013 6.30619 5.91531 6.67101 5.91531 7.08795V16.9381C5.91531 17.3811 6.28013 17.7199 6.69707 17.7199C7.11401 17.7199 7.47883 17.355 7.47883 16.9381V13.3681H11.0228V16.9121C11.0228 17.355 11.3876 17.6938 11.8046 17.6938C12.2476 17.6938 12.5863 17.329 12.5863 16.9121V13.3681H17.3029C17.7459 13.3681 18.0847 13.0033 18.0847 12.5863V7.08795C18.0847 6.64495 17.7459 6.28013 17.3029 6.28013ZM11.987 0C5.36808 0 0 5.36808 0 11.987C0 18.6059 5.36808 24 12.013 24C18.658 24 24 18.6319 24 11.987C24 5.36808 18.6319 0 11.987 0ZM11.987 22.4365C6.22801 22.4365 1.56352 17.7459 1.56352 12.013C1.56352 6.25407 6.25407 1.58958 11.987 1.58958C17.7199 1.58958 22.4104 6.28013 22.4104 12.013C22.4365 17.7459 17.7459 22.4365 11.987 22.4365Z" fill="#5561B2"/>
</svg>
