<svg width="41" height="23" viewBox="0 0 41 23" fill="none" xmlns="http://www.w3.org/2000/svg">
<path d="M7.39893 17.0028C6.43901 17.0028 5.65796 17.7838 5.65796 18.7438C5.65796 19.7037 6.43893 20.4848 7.39893 20.4848C8.35894 20.4848 9.13991 19.7038 9.13991 18.7438C9.13983 17.7838 8.35886 17.0028 7.39893 17.0028ZM7.39893 19.2794C7.10363 19.2794 6.86329 19.0391 6.86329 18.7437C6.86329 18.4483 7.10355 18.2081 7.39893 18.2081C7.69432 18.2081 7.93458 18.4483 7.93458 18.7437C7.9345 19.0391 7.69424 19.2794 7.39893 19.2794Z" fill="#5561B2"/>
<path d="M33.8065 17.0028C32.8466 17.0028 32.0656 17.7838 32.0656 18.7438C32.0656 19.7037 32.8465 20.4848 33.8065 20.4848C34.7665 20.4848 35.5475 19.7038 35.5475 18.7438C35.5475 17.7838 34.7664 17.0028 33.8065 17.0028ZM33.8065 19.2794C33.5112 19.2794 33.2709 19.0391 33.2709 18.7437C33.2709 18.4483 33.5111 18.2081 33.8065 18.2081C34.1019 18.2081 34.3422 18.4483 34.3422 18.7437C34.3422 19.0391 34.1018 19.2794 33.8065 19.2794Z" fill="#5561B2"/>
<path d="M39.4575 13.6086V13.6045V8.14616C39.4575 7.46226 39.2745 6.78904 38.9284 6.19924L38.2296 5.00829C38.0611 4.72119 37.6918 4.62492 37.4048 4.79359C37.1178 4.96201 37.0216 5.33132 37.1901 5.61835L37.889 6.80929C38.1267 7.21436 38.2523 7.67657 38.2523 8.14624V8.23857H37.0421C36.3449 8.23857 35.7776 8.8058 35.7776 9.50304V12.9427C35.7776 13.64 36.3449 14.2072 37.0421 14.2072H38.2574C38.2944 14.5045 38.5476 14.7347 38.8549 14.7347H38.883C39.3857 14.7347 39.7947 15.1436 39.7947 15.6463V16.6228H37.3743C36.6492 15.408 35.3219 14.5923 33.8073 14.5923C32.2926 14.5923 30.9653 15.408 30.2402 16.6228H24.1845L24.9373 14.9437C25.0202 14.759 25.0622 14.5625 25.0622 14.3599V9.4439H29.0903C29.4232 9.4439 29.693 9.17406 29.693 8.84123C29.693 8.5084 29.4232 8.23857 29.0903 8.23857H26.2679V3.61614H32.88L32.8751 8.23857H31.6586C31.3258 8.23857 31.056 8.5084 31.056 8.84123C31.056 9.17406 31.3258 9.4439 31.6586 9.4439H32.8751C33.5426 9.4439 34.0856 8.90086 34.0856 8.23343V3.40537C34.0856 2.85823 33.6405 2.4121 33.0878 2.41081H19.0639C18.8205 2.41081 18.5853 2.4988 18.4017 2.65855L11.8182 8.38659C11.6285 8.55163 11.5612 8.81697 11.6492 9.05241C11.7373 9.28785 11.9623 9.4439 12.2137 9.4439H23.8567V14.3599C23.8567 14.3914 23.8502 14.4219 23.8373 14.4506L22.8634 16.6228H15.9936C15.6608 16.6228 15.391 16.8927 15.391 17.2255C15.391 17.5583 15.6608 17.8282 15.9936 17.8282H29.7586C29.6919 18.123 29.6555 18.4291 29.6555 18.7439C29.6555 18.8449 29.6604 18.9447 29.6676 19.0439H11.5395C11.5466 18.9447 11.5515 18.8449 11.5515 18.7439C11.5515 18.4292 11.5151 18.123 11.4485 17.8282H13.4254C13.7582 17.8282 14.0281 17.5583 14.0281 17.2255C14.0281 16.8927 13.7582 16.6228 13.4254 16.6228H10.9669C10.5394 15.9065 9.90232 15.3296 9.14088 14.9763V9.11822L17.7895 1.59344C18.0771 1.34322 18.4454 1.20541 18.8266 1.20541H33.0877C34.0207 1.20541 34.8937 1.7053 35.3659 2.50997L35.8885 3.40063C36.057 3.68766 36.4262 3.78376 36.7134 3.61542C37.0004 3.44699 37.0966 3.07768 36.9282 2.79057L36.4055 1.89992C35.7178 0.728017 34.4465 0 33.0878 0H18.8267C18.1546 0 17.5053 0.242914 16.9984 0.684063L8.31282 8.24098H4.23367C1.89919 8.24106 0 10.1403 0 12.4747V18.9503C0 19.6665 0.582655 20.2492 1.29886 20.2492H3.53209C4.13628 21.7961 5.64173 22.8954 7.39998 22.8954C9.15824 22.8954 10.6637 21.7962 11.2679 20.2492H29.9394C30.5435 21.7961 32.049 22.8954 33.8073 22.8954C35.5656 22.8954 37.071 21.7962 37.6752 20.2492H39.6972C40.4156 20.2492 41 19.6647 41 18.9465V15.6463C40.9999 14.6781 40.3466 13.8596 39.4575 13.6086ZM37.042 9.44382H38.2522V10.6201H36.983V9.50296C36.983 9.47041 37.0095 9.44382 37.042 9.44382ZM36.983 12.9427V11.8255H38.2522V13.0019H37.042C37.0095 13.0019 36.983 12.9753 36.983 12.9427ZM23.8565 3.61606H25.0625V8.23849H23.8565V3.61606ZM19.1375 3.61606H22.6512V8.23849H13.8246L19.1375 3.61606ZM7.93555 9.44639V14.6279C7.76006 14.6052 7.58151 14.5923 7.3999 14.5923C5.884 14.5923 4.55581 15.4094 3.83109 16.6259C3.81116 16.6239 3.79099 16.6228 3.77058 16.6228H1.20533V13.5759H2.84441C3.847 13.5759 4.66261 12.7602 4.66261 11.7576C4.66261 10.7551 3.847 9.93945 2.84441 9.93945H2.58052C3.05623 9.62823 3.62394 9.44647 4.23367 9.44647H7.93555V9.44639ZM2.84441 11.1446C3.18238 11.1446 3.45728 11.4196 3.45728 11.7575C3.45728 12.0955 3.1823 12.3704 2.84441 12.3704H1.20798C1.22292 11.932 1.331 11.5169 1.51381 11.1446H2.84441ZM1.29886 19.0438C1.24727 19.0438 1.20533 19.0019 1.20533 18.9503V17.8281H3.35137C3.28468 18.1229 3.24836 18.429 3.24836 18.7438C3.24836 18.8448 3.25326 18.9446 3.26041 19.0438H1.29886ZM7.39998 21.69C5.77544 21.69 4.45368 20.3683 4.45368 18.7437C4.45368 17.1191 5.77536 15.7974 7.39998 15.7974C9.0246 15.7974 10.3463 17.1191 10.3463 18.7437C10.3463 20.3683 9.02452 21.69 7.39998 21.69ZM33.8073 21.69C32.1827 21.69 30.861 20.3683 30.861 18.7437C30.861 17.1191 32.1826 15.7974 33.8073 15.7974C35.4319 15.7974 36.7536 17.1191 36.7536 18.7437C36.7536 20.3683 35.4318 21.69 33.8073 21.69ZM39.6971 19.0438H37.9467C37.9539 18.9446 37.9588 18.8448 37.9588 18.7438C37.9588 18.4291 37.9224 18.1229 37.8558 17.8281H39.7946V18.9464C39.7946 19.0001 39.7509 19.0438 39.6971 19.0438Z" fill="#5561B2"/>
<path d="M22.3028 11.5923C22.6356 11.5923 22.9055 11.3225 22.9055 10.9897C22.9055 10.6568 22.6356 10.387 22.3028 10.387H21.1447C20.8118 10.387 20.542 10.6568 20.542 10.9897C20.542 11.3225 20.8118 11.5923 21.1447 11.5923H22.3028Z" fill="#5561B2"/>
</svg>
