<svg width="40" height="26" viewBox="0 0 40 26" fill="none" xmlns="http://www.w3.org/2000/svg">
<path d="M39.3744 17.0956C39.0323 13.0048 35.6106 9.85966 31.5055 9.86286C30.5595 9.86467 29.6216 10.0378 28.7373 10.3738L26.2013 5.0202L26.6924 3.94515C28.0505 4.16188 29.4288 3.70129 30.3838 2.71163C31.0044 2.092 31.0051 1.08656 30.3855 0.465939C30.0874 0.167341 29.6826 -0.000327807 29.2607 9.54713e-07H23.7375C22.9455 -0.000903141 22.3027 0.640429 22.3018 1.43242C22.3012 2.03142 22.6728 2.56771 23.2339 2.77738L25.4089 3.59271L24.946 4.60267H11.6673L12.4196 1.46825C12.5041 1.11508 12.2865 0.760263 11.9333 0.675607C11.883 0.663525 11.8315 0.657525 11.7798 0.657525H6.51959C4.70392 0.657525 3.23197 2.12948 3.23197 3.94515C3.23197 5.76082 4.70392 7.23277 6.51959 7.23277H7.83464V5.91772H6.51959C5.43016 5.91772 4.54702 5.03458 4.54702 3.94515C4.54702 2.85571 5.43016 1.97257 6.51959 1.97257H10.9454L9.02804 9.9628C4.73392 9.31933 0.731243 12.2788 0.0878563 16.573C-0.555531 20.8671 2.40398 24.8698 6.69811 25.5132C10.9922 26.1566 14.9949 23.197 15.6383 18.9029C16.2067 15.1091 13.9542 11.4589 10.3082 10.2658L10.8343 8.06116L19.1631 18.1713C19.2879 18.3226 19.4738 18.4104 19.6701 18.4106H23.6487C24.0119 22.7531 27.8266 25.979 32.1691 25.6159C36.5116 25.2528 39.7376 21.4382 39.3744 17.0956ZM9.38179 14.1249C11.3856 14.9805 12.3164 17.2986 11.4607 19.3024C10.6051 21.3062 8.28701 22.237 6.28321 21.3814C4.27941 20.5258 3.3486 18.2077 4.20428 16.2039C4.82507 14.75 6.25379 13.8071 7.83464 13.808C7.92472 13.808 8.01348 13.8152 8.10159 13.8218L7.19487 17.5999L8.47441 17.9063L9.38179 14.1249ZM14.4099 17.7531C14.4406 21.416 11.4961 24.4102 7.83332 24.441C4.1705 24.4717 1.17622 21.5273 1.14548 17.8644C1.11474 14.2015 4.05922 11.2073 7.72204 11.1766C8.05598 11.1738 8.38975 11.1962 8.72032 11.2437L8.4126 12.5252C5.51399 12.1938 2.89557 14.2749 2.56417 17.1735C2.23278 20.072 4.31393 22.6905 7.21246 23.0219C10.1111 23.3533 12.7295 21.2721 13.0609 18.3736C13.3352 15.9745 11.9477 13.6948 9.69083 12.8362L9.99921 11.5501C12.637 12.472 14.4054 14.9588 14.4099 17.7531ZM29.2476 14.5227L30.4666 17.0956H27.6195C27.7961 16.0547 28.3825 15.128 29.2476 14.5227ZM32.0973 17.4717L32.0992 17.4711L30.4357 13.9586C32.5322 13.3654 34.7127 14.5841 35.3059 16.6806C35.8991 18.7772 34.6804 20.9577 32.5838 21.5508C30.4873 22.144 28.3068 20.9253 27.7136 18.8288C27.6747 18.6912 27.6433 18.5516 27.6195 18.4107H31.5055C31.8686 18.4093 32.1619 18.1138 32.1606 17.7507C32.1602 17.6542 32.1386 17.5589 32.0973 17.4717ZM28.6801 13.3234C27.3633 14.164 26.488 15.546 26.2907 17.0956H24.9638C25.1743 15.037 26.3416 13.1977 28.1146 12.1307L28.6801 13.3234ZM23.6902 1.54584C23.6446 1.52751 23.6149 1.48321 23.6152 1.43406C23.6152 1.36831 23.6685 1.31505 23.7342 1.31505C23.7345 1.31505 23.7346 1.31505 23.7349 1.31505H29.2581C29.4084 1.31488 29.5305 1.43661 29.5306 1.58694C29.5307 1.65935 29.5019 1.7288 29.4507 1.77992C28.5969 2.63182 27.3245 2.90724 26.1947 2.48478L23.6902 1.54584ZM19.5083 16.5229L11.2235 6.4628L11.3517 5.91772H24.3457L19.5083 16.5229ZM20.6899 17.0956L25.4846 6.58445L27.5492 10.9366C25.3217 12.2299 23.8656 14.5291 23.6487 17.0956H20.6899ZM33.7412 23.9424C33.024 24.1997 32.2675 24.3302 31.5055 24.3284C28.1304 24.3241 25.3052 21.7684 24.9638 18.4107H26.2907C26.6516 21.2965 29.2836 23.3435 32.1696 22.9826C35.0556 22.6217 37.1024 19.9896 36.7415 17.1037C36.3806 14.2178 33.7486 12.1709 30.8626 12.5317C30.5242 12.5741 30.1908 12.6491 29.867 12.756L29.3021 11.5639C32.7204 10.3381 36.4852 12.1154 37.711 15.5336C38.9368 18.9518 37.1595 22.7166 33.7412 23.9424Z" fill="#5561B2"/>
</svg>
