<svg width="21" height="21" viewBox="0 0 21 21" fill="none" xmlns="http://www.w3.org/2000/svg">
<path d="M20 2.41399C20 2.2283 19.9667 2.04443 19.902 1.87288C19.8373 1.70133 19.7425 1.54545 19.6229 1.41415C19.5034 1.28285 19.3614 1.17869 19.2052 1.10763C19.049 1.03657 18.8816 1 18.7126 1H2.28744C1.94599 1 1.61852 1.14897 1.37708 1.41415C1.13564 1.67932 1 2.03898 1 2.41399V14.9728C1 15.3478 1.13564 15.7074 1.37708 15.9726C1.61852 16.2378 1.94599 16.3868 2.28744 16.3868H4.84299L6.85507 19.7612C6.89883 19.8342 6.95833 19.8942 7.02828 19.9359C7.09823 19.9775 7.17647 19.9995 7.25604 20C7.33517 20.0001 7.41312 19.9789 7.48304 19.9382C7.55295 19.8975 7.61269 19.8385 7.657 19.7665L9.73671 16.3868H18.7126C18.8816 16.3868 19.049 16.3502 19.2052 16.2791C19.3614 16.2081 19.5034 16.1039 19.6229 15.9726C19.7425 15.8413 19.8373 15.6854 19.902 15.5139C19.9667 15.3423 20 15.1585 20 14.9728V5.83091C20 5.6902 19.9491 5.55524 19.8585 5.45574C19.7679 5.35624 19.645 5.30033 19.5169 5.30033C19.3888 5.30033 19.2659 5.35624 19.1753 5.45574C19.0847 5.55524 19.0338 5.6902 19.0338 5.83091V14.9728C19.0332 15.0661 18.9991 15.1555 18.939 15.2215C18.8789 15.2875 18.7976 15.3249 18.7126 15.3256H9.4686H9.38889C9.36655 15.3302 9.34469 15.3373 9.32367 15.3468C9.31646 15.3457 9.30914 15.3457 9.30193 15.3468C9.27717 15.3569 9.25364 15.3702 9.23188 15.3866H9.21739C9.16134 15.4287 9.11367 15.4828 9.0773 15.5458L7.2657 18.5117L5.50966 15.5644C5.46567 15.491 5.40579 15.4308 5.33539 15.3891C5.26498 15.3474 5.18626 15.3256 5.10628 15.3256H2.28744C2.20224 15.3256 2.12052 15.2884 2.06028 15.2223C2.00003 15.1561 1.96618 15.0663 1.96618 14.9728V2.41399C1.96586 2.36756 1.97395 2.32152 1.98998 2.27855C2.00601 2.23558 2.02966 2.19655 2.05956 2.16371C2.08946 2.13088 2.125 2.1049 2.16412 2.08729C2.20324 2.06969 2.24516 2.0608 2.28744 2.06116H18.7126C18.7978 2.06116 18.8795 2.09833 18.9397 2.1645C19 2.23067 19.0338 2.32041 19.0338 2.41399V2.91273C19.0338 3.05345 19.0847 3.18841 19.1753 3.28791C19.2659 3.38741 19.3888 3.44331 19.5169 3.44331C19.645 3.44331 19.7679 3.38741 19.8585 3.28791C19.9491 3.18841 20 3.05345 20 2.91273V2.41399Z" fill="#5561B2" stroke="#5561B2" stroke-width="0.5"/>
<path d="M10.7415 11.4446C10.6133 11.4446 10.4905 11.5005 10.3999 11.6C10.3093 11.6995 10.2584 11.8344 10.2584 11.9752V12.0096C10.2584 12.1504 10.3093 12.2853 10.3999 12.3848C10.4905 12.4843 10.6133 12.5402 10.7415 12.5402C10.8696 12.5402 10.9925 12.4843 11.0831 12.3848C11.1736 12.2853 11.2245 12.1504 11.2245 12.0096V11.9752C11.2245 11.8344 11.1736 11.6995 11.0831 11.6C10.9925 11.5005 10.8696 11.4446 10.7415 11.4446Z" fill="#5561B2" stroke="#5561B2" stroke-width="0.5"/>
<path d="M11.2245 4.59161C11.2245 4.4509 11.1736 4.31594 11.0831 4.21644C10.9925 4.11694 10.8696 4.06104 10.7415 4.06104C10.6133 4.06104 10.4905 4.11694 10.3999 4.21644C10.3093 4.31594 10.2584 4.4509 10.2584 4.59161V9.00337C10.2584 9.14409 10.3093 9.27904 10.3999 9.37854C10.4905 9.47805 10.6133 9.53395 10.7415 9.53395C10.8696 9.53395 10.9925 9.47805 11.0831 9.37854C11.1736 9.27904 11.2245 9.14409 11.2245 9.00337V4.59161Z" fill="#5561B2" stroke="#5561B2" stroke-width="0.5"/>
</svg>
