<svg width="34" height="31" viewBox="0 0 34 31" fill="none" xmlns="http://www.w3.org/2000/svg">
<path d="M5.10013 27.1996H3.40016V26.0662C3.40016 25.7533 3.14646 25.4996 2.8335 25.4996C2.52055 25.4996 2.26685 25.7533 2.26685 26.0662V27.7662C2.26685 28.0792 2.52055 28.3329 2.8335 28.3329H5.10013C5.41309 28.3329 5.66679 28.0792 5.66679 27.7662C5.66679 27.4533 5.41309 27.1996 5.10013 27.1996Z" fill="#5561B2"/>
<path d="M32.8667 7.93322V6.601C33.7045 6.20496 34.1552 5.28055 33.9512 4.3766C33.7473 3.47265 32.9434 2.83129 32.0167 2.8333H28.0501C27.1234 2.83129 26.3195 3.47265 26.1156 4.3766C25.9116 5.28055 26.3623 6.20496 27.2001 6.601V7.93322C27.2016 8.41402 27.4077 8.87147 27.7668 9.1912V20.275C27.4077 20.5947 27.2016 21.0522 27.2001 21.533V22.6663C26.5742 22.6663 26.0668 23.1737 26.0668 23.7996V26.0663H23.8002V23.7996C23.8002 23.1737 23.2928 22.6663 22.6668 22.6663V21.533C22.6653 21.0522 22.4593 20.5947 22.1002 20.275V9.1912C22.4593 8.87147 22.6653 8.41402 22.6668 7.93322V6.601C23.1624 6.37182 23.5394 5.9457 23.7065 5.42593C23.8735 4.90616 23.8155 4.34018 23.5463 3.86518C24.4799 3.57333 25.0598 2.64287 24.9107 1.67619C24.7616 0.709511 23.9283 -0.0029726 22.9502 9.32528e-06H1.98384C1.00574 -0.0029726 0.172375 0.709511 0.0232845 1.67619C-0.125806 2.64287 0.454164 3.57333 1.38772 3.86518C1.11855 4.34018 1.06047 4.90616 1.22755 5.42593C1.39464 5.9457 1.77163 6.37182 2.26717 6.601V7.93322C2.26868 8.41402 2.47473 8.87147 2.83383 9.1912V20.275C2.47473 20.5947 2.26868 21.0522 2.26717 21.533V22.6663H1.13385C0.50794 22.6663 0.000537769 23.1737 0.000537769 23.7996V29.4662C0.000537769 30.0921 0.50794 30.5995 1.13385 30.5995H32.8667C33.4926 30.5995 34 30.0921 34 29.4662V23.7996C34 23.1737 33.4926 22.6663 32.8667 22.6663V21.533C32.8652 21.0522 32.6591 20.5947 32.3 20.275V9.1912C32.6591 8.87147 32.8652 8.41402 32.8667 7.93322ZM28.3334 7.93322V6.7999H31.7334V7.93322C31.7334 8.24617 31.4797 8.49987 31.1667 8.49987H28.9001C28.5871 8.49987 28.3334 8.24617 28.3334 7.93322ZM28.0501 3.96661H32.0167C32.4861 3.96661 32.8667 4.34716 32.8667 4.8166C32.8667 5.28603 32.4861 5.66659 32.0167 5.66659H28.0501C27.5807 5.66659 27.2001 5.28603 27.2001 4.8166C27.2001 4.34716 27.5807 3.96661 28.0501 3.96661ZM15.3003 22.6663V21.533C15.2988 21.0522 15.0927 20.5947 14.7336 20.275V9.1912C15.0927 8.87147 15.2988 8.41402 15.3003 7.93322V6.7999H17.0003V7.93322C17.0018 8.41402 17.2078 8.87147 17.5669 9.1912V20.275C17.2078 20.5947 17.0018 21.0522 17.0003 21.533V22.6663H15.3003ZM7.93375 22.6663V21.533C7.93224 21.0522 7.72618 20.5947 7.36709 20.275V9.1912C7.72618 8.87147 7.93224 8.41402 7.93375 7.93322V6.7999H9.63372V7.93322C9.63523 8.41402 9.84128 8.87147 10.2004 9.1912V20.275C9.84128 20.5947 9.63523 21.0522 9.63372 21.533V22.6663H7.93375ZM3.40048 7.93322V6.7999H6.80043V7.93322C6.80043 8.24617 6.54673 8.49987 6.23377 8.49987H3.96714C3.65419 8.49987 3.40048 8.24617 3.40048 7.93322ZM13.6003 19.833H11.3337V9.63319H13.6003V19.833ZM14.167 7.93322C14.167 8.24617 13.9133 8.49987 13.6003 8.49987H11.3337C11.0207 8.49987 10.767 8.24617 10.767 7.93322V6.7999H14.167V7.93322ZM10.767 21.533C10.767 21.22 11.0207 20.9663 11.3337 20.9663H13.6003C13.9133 20.9663 14.167 21.22 14.167 21.533V22.6663H10.767V21.533ZM21.5335 7.93322C21.5335 8.24617 21.2798 8.49987 20.9669 8.49987H18.7002C18.3873 8.49987 18.1336 8.24617 18.1336 7.93322V6.7999H21.5335V7.93322ZM18.1336 21.533C18.1336 21.22 18.3873 20.9663 18.7002 20.9663H20.9669C21.2798 20.9663 21.5335 21.22 21.5335 21.533V22.6663H18.1336V21.533ZM20.9669 19.833H18.7002V9.63319H20.9669V19.833ZM21.8169 5.66659H3.11716C2.64772 5.66659 2.26717 5.28603 2.26717 4.8166C2.26717 4.34716 2.64772 3.96661 3.11716 3.96661H21.8169C22.2863 3.96661 22.6668 4.34716 22.6668 4.8166C22.6668 5.28603 22.2863 5.66659 21.8169 5.66659ZM1.13385 1.98331C1.13385 1.51388 1.51441 1.13332 1.98384 1.13332H22.9502C23.4196 1.13332 23.8002 1.51388 23.8002 1.98331C23.8002 2.45275 23.4196 2.8333 22.9502 2.8333H1.98384C1.51441 2.8333 1.13385 2.45275 1.13385 1.98331ZM3.96714 9.63319H6.23377V19.833H3.96714V9.63319ZM3.40048 21.533C3.40048 21.22 3.65419 20.9663 3.96714 20.9663H6.23377C6.54673 20.9663 6.80043 21.22 6.80043 21.533V22.6663H3.40048V21.533ZM32.8667 29.4662H1.13385V23.7996H22.6668V26.0663C22.6668 26.6922 23.1742 27.1996 23.8002 27.1996H26.0668C26.6927 27.1996 27.2001 26.6922 27.2001 26.0663V23.7996H32.8667V29.4662ZM28.3334 22.6663V21.533C28.3334 21.22 28.5871 20.9663 28.9001 20.9663H31.1667C31.4797 20.9663 31.7334 21.22 31.7334 21.533V22.6663H28.3334ZM31.1667 19.833H28.9001V9.63319H31.1667V19.833Z" fill="#5561B2"/>
</svg>
