<svg width="24" height="24" viewBox="0 0 24 24" fill="none" xmlns="http://www.w3.org/2000/svg">
<path d="M1.59514 21.6V22.8H15.9951V21.6H1.59514ZM20.5021 6.23681L18.611 4.66093C18.3565 4.44879 18.3221 4.07046 18.5342 3.81589C18.7463 3.56132 19.1247 3.52693 19.3793 3.73907L22.5475 6.37925C22.9578 6.72124 23.1951 7.22785 23.1951 7.76205V19.8C23.1951 21.1255 22.1206 22.2 20.7951 22.2C19.4697 22.2 18.3951 21.1255 18.3951 19.8V12.6C18.3951 12.2686 18.1265 12 17.7951 12H15.9951V20.4C16.6579 20.4 17.1951 20.9373 17.1951 21.6V22.8C17.1951 23.4627 16.6579 24 15.9951 24H1.59514C0.9324 24 0.395142 23.4627 0.395142 22.8V21.6C0.395142 20.9373 0.9324 20.4 1.59514 20.4V1.8C1.59514 0.805888 2.40103 0 3.39514 0H14.1951C15.1893 0 15.9951 0.805888 15.9951 1.8V10.8H17.7951C18.7893 10.8 19.5951 11.6059 19.5951 12.6V19.8C19.5951 20.4627 20.1324 21 20.7951 21C21.4579 21 21.9951 20.4627 21.9951 19.8V9.49758C21.8075 9.56391 21.6055 9.6 21.3951 9.6C20.401 9.6 19.5951 8.79411 19.5951 7.8C19.5951 7.13088 19.9603 6.54704 20.5021 6.23681ZM14.7951 1.8C14.7951 1.46863 14.5265 1.2 14.1951 1.2H3.39514C3.06377 1.2 2.79514 1.46863 2.79514 1.8V20.4H14.7951V1.8ZM5.19514 2.4H12.3951C13.0579 2.4 13.5951 2.93726 13.5951 3.6V8.4C13.5951 9.06274 13.0579 9.6 12.3951 9.6H5.19514C4.5324 9.6 3.99514 9.06274 3.99514 8.4V3.6C3.99514 2.93726 4.5324 2.4 5.19514 2.4ZM5.19514 3.6V8.4H12.3951V3.6H5.19514ZM21.3951 8.4C21.7265 8.4 21.9951 8.13137 21.9951 7.8C21.9951 7.46863 21.7265 7.2 21.3951 7.2C21.0638 7.2 20.7951 7.46863 20.7951 7.8C20.7951 8.13137 21.0638 8.4 21.3951 8.4Z" fill="#5561B2"/>
</svg>
