<svg width="6" height="24" viewBox="0 0 6 24" fill="none" xmlns="http://www.w3.org/2000/svg">
<path fill-rule="evenodd" clip-rule="evenodd" d="M19.8652 4.55431L19.6854 13.573C19.5955 19.2959 14.4419 21.9326 9.9176 24C5.39326 21.9326 0.269663 19.2959 0.149813 13.573L0 4.55431C4.58427 4.01498 6.68165 3.38577 9.9176 0C13.1835 3.41573 15.3109 4.01498 19.8652 4.55431ZM9.9176 1.82772C7.46067 4.28464 4.70412 5.24345 1.28839 5.69288L1.4382 13.573C1.49813 18.367 6.0824 20.8839 9.9176 22.5918C13.7528 20.8839 18.3371 18.367 18.427 13.573L18.5768 5.69288C15.161 5.24345 12.4045 4.28464 9.9176 1.82772Z" fill="#5561B2"/>
</svg>
