<svg width="30" height="36" viewBox="0 0 30 36" fill="none" xmlns="http://www.w3.org/2000/svg">
<path d="M20.4532 21.0691V26.8144C20.4532 27.1062 20.6898 27.3428 20.9816 27.3428C21.2734 27.3428 21.51 27.1062 21.51 26.8144V20.6871C21.51 20.4533 21.3564 20.2473 21.1323 20.1807C19.9357 19.8248 18.8592 19.0776 18.1012 18.0766C17.3181 17.0428 16.9042 15.8086 16.9042 14.5079C16.9042 11.2447 19.5589 8.58987 22.8221 8.58987C23.4318 8.58987 24.0284 8.68268 24.5948 8.86001C24.4353 9.46856 24.1849 10.0451 23.8562 10.5723C23.554 10.4294 23.2166 10.3491 22.8607 10.3491C21.5721 10.3491 20.5236 11.3975 20.5236 12.6863C20.5236 13.975 21.572 15.0234 22.8607 15.0234C24.1495 15.0234 25.1979 13.975 25.1979 12.6863C25.1979 12.1371 25.0071 11.6321 24.6889 11.2327C25.079 10.6293 25.3794 9.96806 25.5777 9.26909C26.2683 9.63267 26.8887 10.1341 27.399 10.7559C27.5841 10.9815 27.9171 11.0142 28.1427 10.829C28.3683 10.6439 28.401 10.311 28.2159 10.0853C27.5478 9.27155 26.7201 8.63191 25.7962 8.19654C25.8343 7.89483 25.855 7.58876 25.855 7.2791C25.855 3.26545 22.5896 0 18.5758 0C14.562 0 11.2966 3.26545 11.2966 7.27917C11.2966 8.37155 11.5446 9.45471 12.0146 10.4329C10.54 12.6198 10.4095 15.5059 11.7524 17.8264L6.90403 22.6747C6.69766 22.8812 6.69766 23.2156 6.90403 23.4221C7.11039 23.6284 7.44494 23.6284 7.65131 23.4221L12.7959 18.2775C12.9739 18.0995 13.0016 17.8206 12.862 17.611C11.3072 15.2758 11.6209 12.1388 13.608 10.1518C15.0719 8.68781 17.1885 8.11624 19.1549 8.5777C18.4583 9.01005 17.8428 9.56131 17.3378 10.2034C16.399 10.3063 15.524 10.7236 14.8519 11.3956C13.2303 13.0172 13.2303 15.6556 14.8519 17.2772C15.4589 17.8841 16.2159 18.2782 17.0534 18.4276C17.1195 18.5245 17.1873 18.6206 17.2587 18.7149C17.6826 19.2745 18.1917 19.766 18.7599 20.1738C17.294 20.4161 15.7723 20.1023 14.5175 19.2668C14.3079 19.1272 14.0289 19.1548 13.851 19.3328L9.00841 24.1754C8.80204 24.3818 8.80204 24.7163 9.00841 24.9227L10.153 26.0674C10.4425 26.3451 10.4425 26.8448 10.153 27.1226C9.87522 27.412 9.37544 27.412 9.09777 27.1225L7.95316 25.9779C7.74679 25.7716 7.41224 25.7716 7.20588 25.9779L5.83506 27.3487C5.63038 27.5455 5.63038 27.8992 5.83506 28.096L6.97961 29.2405C7.27056 29.5315 7.27056 30.0049 6.97968 30.2958C6.68873 30.5868 6.21538 30.5866 5.9245 30.2958L4.77988 29.1511C4.57352 28.9448 4.23897 28.9448 4.0326 29.1511L2.53333 30.6503C2.24238 30.9413 1.76903 30.9412 1.47815 30.6504C1.1872 30.3595 1.1872 29.886 1.47815 29.5952L6.15674 24.9166C6.36311 24.7101 6.36311 24.3757 6.15674 24.1692C5.95038 23.9629 5.61583 23.9629 5.40946 24.1692L0.730799 28.8479C0.0278848 29.5508 0.0278848 30.6946 0.730799 31.3977C1.43378 32.1005 2.57756 32.1005 3.28054 31.3977L4.40617 30.2721L5.17722 31.0431C5.88013 31.746 7.02398 31.746 7.72696 31.043C8.42988 30.3401 8.42988 29.1963 7.72696 28.4932L6.95599 27.7223L7.57952 27.0988L8.35049 27.8697C9.02163 28.5692 10.2292 28.5692 10.9003 27.8698C11.5997 27.1987 11.5998 25.991 10.9003 25.32L10.1293 24.549L14.3021 20.3762C16.0497 21.3872 18.1672 21.5902 20.0864 20.9227C20.2074 20.9747 20.3294 21.0242 20.4532 21.0691ZM22.8607 11.4059C22.9761 11.4059 23.0874 11.4226 23.1937 11.4513C22.7372 11.9568 22.195 12.3898 21.5825 12.7277C21.582 12.7138 21.5804 12.7002 21.5804 12.6862C21.5804 11.9803 22.1547 11.4059 22.8607 11.4059ZM24.1411 12.6863C24.1411 13.3923 23.5668 13.9667 22.8607 13.9667C22.5533 13.9667 22.271 13.8576 22.05 13.6763C22.7983 13.2701 23.4588 12.7434 24.0099 12.1252C24.093 12.2949 24.1411 12.4849 24.1411 12.6863ZM12.8607 9.40444C12.8277 9.43741 12.7964 9.47152 12.7642 9.50505C12.4943 8.79827 12.3533 8.04143 12.3533 7.27924C12.3533 3.8482 15.1447 1.05687 18.5757 1.05687C22.0067 1.05687 24.7981 3.8482 24.7981 7.27924C24.7981 7.45784 24.7896 7.63495 24.7747 7.81066C24.148 7.62855 23.4917 7.53314 22.822 7.53314C22.0195 7.53314 21.2483 7.66983 20.5301 7.92042C17.9274 6.81089 14.8716 7.39343 12.8607 9.40444ZM16.5285 11.5032C16.3088 11.9615 16.1378 12.4474 16.0221 12.954C15.7593 12.8356 15.5047 12.6998 15.2603 12.5456C15.3603 12.4043 15.4727 12.2692 15.5991 12.1428C15.8701 11.8718 16.1855 11.6563 16.5285 11.5032ZM15.5992 16.5298C14.7815 15.7121 14.5174 14.5479 14.8054 13.5056C15.1435 13.7107 15.4971 13.8876 15.8638 14.0348C15.8533 14.1912 15.8474 14.3489 15.8474 14.5079C15.8474 15.401 16.0142 16.2671 16.335 17.076C16.0672 16.9334 15.8199 16.7505 15.5992 16.5298Z" fill="#5561B2"/>
<path d="M29.3578 12.0675C29.2557 11.7941 28.9512 11.6554 28.6779 11.7575C28.4045 11.8596 28.2657 12.164 28.3678 12.4374C28.6147 13.0985 28.7399 13.7951 28.7399 14.5079C28.7399 17.0771 27.1001 19.3383 24.6594 20.1348C24.442 20.2057 24.2949 20.4084 24.2949 20.6371V23.571L22.798 24.7318C22.5281 24.9301 22.5282 25.3685 22.798 25.5669L23.961 26.4688L22.798 27.3708C22.5281 27.5691 22.5281 28.0075 22.798 28.2059L23.9609 29.1078L22.798 30.0097C22.528 30.208 22.5281 30.6464 22.798 30.8448L24.2948 32.0056V33.2736L22.8407 34.714L21.5099 33.2859V28.928C21.5099 28.6361 21.2733 28.3996 20.9815 28.3996C20.6897 28.3996 20.4531 28.6361 20.4531 28.928V33.494C20.4531 33.6277 20.5038 33.7564 20.5949 33.8543L22.4391 35.8332C22.6325 36.0493 22.9956 36.0566 23.1976 35.8483L25.1952 33.8694C25.2954 33.7702 25.3517 33.635 25.3517 33.494V31.7468C25.3517 31.5835 25.2762 31.4293 25.1471 31.3292L23.9841 30.4273L25.1471 29.5254C25.417 29.3271 25.417 28.8887 25.1471 28.6903L23.9841 27.7884L25.1471 26.8865C25.417 26.6881 25.417 26.2497 25.1471 26.0513L23.9841 25.1495L25.1471 24.2476C25.2762 24.1474 25.3517 23.9933 25.3517 23.83V21.0094C28.0261 19.9717 29.7968 17.4061 29.7968 14.5079C29.7967 13.6684 29.6491 12.8473 29.3578 12.0675Z" fill="#5561B2"/>
</svg>
