<svg width="29" height="50" viewBox="0 0 29 50" fill="none" xmlns="http://www.w3.org/2000/svg">
<path d="M26.9391 10.2092H2.03346C1.57643 10.2092 1.20589 9.83866 1.20589 9.38163V0.827578C1.20589 0.370548 1.57643 0 2.03346 0H7.02598C7.48301 0 7.85356 0.370548 7.85356 0.827578V3.8142H11.1624V0.827578C11.1624 0.370548 11.533 0 11.99 0H16.982C17.4391 0 17.8091 0.370548 17.8091 0.827578V3.8142H21.1475V0.827578C21.1475 0.370548 21.5175 0 21.9746 0H26.9391C27.3961 0 27.7661 0.370548 27.7661 0.827578V9.38163C27.7661 9.83866 27.3961 10.2092 26.9391 10.2092ZM2.86104 8.55405H26.112V1.65516H22.8017V4.64178C22.8017 5.09881 22.4316 5.46935 21.9746 5.46935H16.982C16.525 5.46935 16.1549 5.09881 16.1549 4.64178V1.65516H12.8176V4.64178C12.8176 5.09881 12.447 5.46935 11.99 5.46935H7.02598C6.56895 5.46935 6.19841 5.09881 6.19841 4.64178V1.65516H2.86104V8.55405Z" fill="white"/>
<path d="M25.48 23.1669H3.51996C3.06293 23.1669 2.69238 22.7964 2.69238 22.3393V9.38169C2.69238 8.92466 3.06293 8.55411 3.51996 8.55411H25.48C25.937 8.55411 26.3071 8.92466 26.3071 9.38169V22.3393C26.3071 22.7964 25.937 23.1669 25.48 23.1669ZM4.34754 21.5118H24.6529V10.2093H4.34754V21.5118Z" fill="white"/>
<path d="M12.7195 19.857H7.83908C7.38205 19.857 7.01151 19.4865 7.01151 19.0295V15.1312C7.01151 13.3297 8.47776 11.8634 10.2793 11.8634C12.0808 11.8634 13.5471 13.3297 13.5471 15.1312V19.0295C13.5471 19.4865 13.1766 19.857 12.7195 19.857ZM8.66666 18.2019H11.8919V15.1312C11.8919 14.2418 11.1687 13.5186 10.2793 13.5186C9.38988 13.5186 8.66666 14.2418 8.66666 15.1312V18.2019Z" fill="white"/>
<path d="M21.1329 19.857H16.2815C15.8245 19.857 15.4539 19.4865 15.4539 19.0295V15.1312C15.4539 13.3297 16.9076 11.8634 18.6932 11.8634C20.4942 11.8634 21.96 13.3297 21.96 15.1312V19.0295C21.96 19.4865 21.59 19.857 21.1329 19.857ZM17.1086 18.2019H20.3058V15.1312C20.3058 14.2418 19.5821 13.5186 18.6932 13.5186C17.8197 13.5186 17.1086 14.2418 17.1086 15.1312V18.2019Z" fill="white"/>
<path d="M2.5112 45.8284C2.48077 45.8284 2.44985 45.8274 2.41844 45.8236C1.96431 45.7733 1.63724 45.3636 1.68797 44.9095L4.21226 22.2475C4.26298 21.7939 4.66204 21.4692 5.12631 21.517C5.58044 21.5678 5.90751 21.977 5.85678 22.4311L3.3325 45.0931C3.28564 45.5163 2.92716 45.8284 2.5112 45.8284Z" fill="white"/>
<path d="M26.4607 45.8284C26.0443 45.8284 25.6858 45.5153 25.6394 45.0921L23.1436 22.4296C23.0934 21.9755 23.4209 21.5668 23.8751 21.517C24.3398 21.4702 24.7389 21.7948 24.7882 22.249L27.2839 44.9105C27.3342 45.3646 27.0066 45.7733 26.5525 45.8236C26.5216 45.8274 26.4907 45.8284 26.4607 45.8284Z" fill="white"/>
<path d="M28.1729 49.1377H0.827578C0.370548 49.1377 0 48.7676 0 48.3106V45.0013C0 44.5442 0.370548 44.1742 0.827578 44.1742H28.1729C28.6299 44.1742 29 44.5442 29 45.0013V48.3106C29 48.7676 28.6299 49.1377 28.1729 49.1377ZM1.65516 47.4835H27.3458V45.8283H1.65516V47.4835Z" fill="white"/>
<path d="M18.4691 40.1624H17.1511C16.6941 40.1624 16.324 39.7923 16.324 39.3353C16.324 38.8782 16.6941 38.5082 17.1511 38.5082H18.4691C18.9261 38.5082 19.2962 38.8782 19.2962 39.3353C19.2962 39.7923 18.9261 40.1624 18.4691 40.1624Z" fill="white"/>
<path d="M20.0672 37.7226H18.7212C18.2642 37.7226 17.8941 37.3526 17.8941 36.8955C17.8941 36.4385 18.2642 36.0685 18.7212 36.0685H20.0672C20.5242 36.0685 20.8943 36.4385 20.8943 36.8955C20.8943 37.3526 20.5242 37.7226 20.0672 37.7226Z" fill="white"/>
<path d="M12.4388 32.7301H11.1208C10.6638 32.7301 10.2933 32.36 10.2933 31.903C10.2933 31.446 10.6638 31.0759 11.1208 31.0759H12.4388C12.8958 31.0759 13.2664 31.446 13.2664 31.903C13.2664 32.36 12.8958 32.7301 12.4388 32.7301Z" fill="white"/>
<path d="M10.8682 30.2904H9.55023C9.0932 30.2904 8.72266 29.9203 8.72266 29.4633C8.72266 29.0063 9.0932 28.6362 9.55023 28.6362H10.8682C11.3252 28.6362 11.6957 29.0063 11.6957 29.4633C11.6957 29.9203 11.3252 30.2904 10.8682 30.2904Z" fill="white"/>
<path d="M20.6566 27.5694H19.3387C18.8817 27.5694 18.5116 27.1994 18.5116 26.7423C18.5116 26.2853 18.8817 25.9153 19.3387 25.9153H20.6566C21.1137 25.9153 21.4837 26.2853 21.4837 26.7423C21.4837 27.1994 21.1137 27.5694 20.6566 27.5694Z" fill="white"/>
<path d="M9.04537 40.1904H7.69893C7.2419 40.1904 6.87135 39.8203 6.87135 39.3633C6.87135 38.9063 7.2419 38.5362 7.69893 38.5362H9.04537C9.5024 38.5362 9.87295 38.9063 9.87295 39.3633C9.87295 39.8203 9.5024 40.1904 9.04537 40.1904Z" fill="white"/>
</svg>
