<svg width="40" height="26" viewBox="0 0 40 26" fill="none" xmlns="http://www.w3.org/2000/svg">
<path d="M0.885983 15.4019C1.04996 15.1229 1.40894 15.0295 1.688 15.1935C1.96706 15.3575 2.06034 15.7164 1.89643 15.9955C1.42254 16.8022 1.17207 17.7245 1.17207 18.6625C1.17207 21.5713 3.5386 23.9379 6.44738 23.9379C9.35624 23.9379 11.7228 21.5713 11.7228 18.6625C11.7228 17.9223 11.5679 17.1953 11.2708 16.5256L9.71397 18.0062C9.75725 18.2219 9.77928 18.4414 9.77928 18.6625C9.77928 20.4997 8.28462 21.9943 6.44746 21.9943C4.6103 21.9943 3.11563 20.4996 3.11563 18.6625C3.11563 16.8253 4.6103 15.3307 6.44746 15.3307C6.72542 15.3307 6.99948 15.3657 7.26651 15.4335L8.82328 13.953C8.09017 13.5817 7.2812 13.3872 6.44746 13.3872C5.19506 13.3872 3.98031 13.8349 3.02704 14.6481C2.91673 14.7422 2.7815 14.7883 2.64713 14.7883C2.4815 14.7883 2.3169 14.7184 2.20104 14.5826C1.99104 14.3364 2.02034 13.9665 2.26659 13.7565C3.4318 12.7627 4.91662 12.2153 6.44754 12.2153C7.60611 12.2153 8.72617 12.5217 9.71498 13.1051L10.4358 12.4195C9.36773 11.812 8.13337 11.4644 6.81917 11.4644C6.43035 11.4644 6.0384 11.4955 5.65403 11.5567C5.48302 11.5841 5.30896 11.5343 5.17818 11.421L3.32923 9.81989C3.03439 9.56458 2.81096 9.24638 2.67291 8.89139C2.17901 7.62203 2.15487 5.22574 3.09665 4.15021C5.67966 1.19987 9.51272 -0.252374 13.8892 0.0601214C14.964 0.136995 15.5837 1.32455 15.0301 2.25509L14.7726 2.68797H15.9952C16.3189 2.68797 16.5811 2.95031 16.5811 3.2739C16.5811 3.59749 16.3189 3.85983 15.9952 3.85983H14.1063C13.834 4.45818 13.7055 5.10817 13.7291 5.7623C14.9044 4.71692 16.4173 4.13443 18.0279 4.13443C20.1508 4.13443 22.1065 5.15379 23.3238 6.87658H27.5397C27.8713 6.87658 28.1962 6.7622 28.4547 6.55455L32.7418 3.11007C32.8459 3.02648 32.9753 2.98094 33.1088 2.98094H36.6141C37.5867 2.98094 38.3779 3.77217 38.3779 4.74474C38.3779 5.31121 38.1031 5.84675 37.643 6.17737L36.3818 7.08314C36.1193 7.27181 35.7529 7.21188 35.5641 6.949C35.3754 6.68619 35.4354 6.3201 35.6983 6.13128L36.9593 5.22551C37.1139 5.11457 37.206 4.93481 37.206 4.74466C37.206 4.41826 36.9405 4.15271 36.6141 4.15271H33.315L29.1884 7.46813C28.7227 7.84234 28.137 8.04843 27.5395 8.04843H23.1047L19.3104 9.49872L17.222 10.297C17.3307 10.3533 18.739 11.5876 21.0272 11.5876H22.3139C23.6023 11.5876 24.8255 12.28 25.4825 13.4687L26.4509 12.7731C26.451 12.773 26.4511 12.773 26.4513 12.7729L34.1095 7.27235C34.3723 7.08361 34.7384 7.1436 34.9272 7.40641C35.116 7.66922 35.0559 8.03539 34.7931 8.22413L27.8496 13.2113L29.1127 13.9883C30.3058 12.8562 31.8978 12.2152 33.5522 12.2152C37.1073 12.2152 39.9995 15.1074 39.9995 18.6624C39.9995 22.2174 37.1073 25.1097 33.5523 25.1097C29.9972 25.1097 27.1051 22.2174 27.1051 18.6624C27.1051 18.1162 27.1749 17.5754 27.3114 17.0485L25.9244 16.1952V20.588C25.9244 22.2627 24.562 23.6251 22.8874 23.6251H20.0643V23.9378H23.887C24.2106 23.9378 24.4729 24.2001 24.4729 24.5237C24.4729 24.8474 24.2106 25.1097 23.887 25.1097H19.4783C19.1547 25.1097 18.8924 24.8474 18.8924 24.5237V23.6251H13.5163C13.3027 23.6251 13.1059 23.5088 13.003 23.3216C12.9 23.1344 12.907 22.9059 13.0214 22.7255C13.7645 21.5533 14.1573 20.1968 14.1573 18.8026C14.1573 17.3566 13.7367 16.0073 13.0118 14.8698L12.1618 15.6782C12.6422 16.5965 12.8946 17.6187 12.8946 18.6623C12.8946 22.2174 10.0024 25.1096 6.44738 25.1096C2.89236 25.1096 0.000137329 22.2174 0.000137329 18.6624C0.000137329 17.5159 0.306461 16.3884 0.885983 15.4019ZM4.28734 18.6624C4.28734 19.8534 5.25631 20.8224 6.4473 20.8224C7.48799 20.8224 8.35907 20.0825 8.56243 19.1012L7.6708 19.949C7.33932 20.2643 6.9048 20.4379 6.44746 20.4379C5.96325 20.4379 5.49427 20.2368 5.1606 19.8859C4.83373 19.5423 4.66038 19.0919 4.67225 18.6178C4.6842 18.1437 4.88006 17.7026 5.22381 17.3759L6.11535 16.528C5.08139 16.6881 4.28734 17.5843 4.28734 18.6624ZM3.78375 5.22473C3.34212 6.19674 3.47805 7.8593 3.79242 8.52991C4.58288 8.39562 5.18662 7.70586 5.18662 6.87775C5.18662 6.04737 4.5796 5.35621 3.78375 5.22473ZM18.0277 5.30637C16.4698 5.30637 15.0228 5.97128 14.0112 7.1411C14.5993 8.66678 15.7489 9.19318 16.0801 9.47888L20.9678 7.61071L22.0825 7.18462C21.079 5.99714 19.6098 5.30637 18.0277 5.30637ZM25.8812 14.6252C25.8902 14.6817 25.8991 14.7437 25.9063 14.8083L31.1143 18.0126C31.1161 18.0137 31.118 18.0149 31.12 18.0161L32.8737 19.0951C33.1587 19.267 33.5306 19.1749 33.7023 18.8899C33.7886 18.7469 33.8116 18.5793 33.7674 18.4182C33.7263 18.2682 33.6303 18.1415 33.4926 18.0585L31.6544 16.9277C31.6528 16.9267 31.6511 16.9257 31.6495 16.9248L28.9076 15.2382C28.9066 15.2375 28.9055 15.2368 28.9045 15.2362L26.8178 13.9526L25.8812 14.6252ZM34.7059 19.4949C34.3732 20.0466 33.7862 20.3525 33.1834 20.3525C32.87 20.3525 32.5524 20.2697 32.264 20.0959L31.6791 19.736C32.0522 20.3846 32.7518 20.8225 33.5523 20.8225C34.7433 20.8225 35.7122 19.8536 35.7122 18.6626C35.7122 17.4716 34.7433 16.5026 33.5523 16.5026C33.4462 16.5026 33.3413 16.511 33.2379 16.526L34.1021 17.0577C34.4939 17.2938 34.7764 17.6668 34.8976 18.108C35.0257 18.5747 34.9558 19.0802 34.7059 19.4949ZM28.2769 18.6624C28.2769 21.5713 30.6434 23.9378 33.5522 23.9378C36.4611 23.9379 38.8277 21.5713 38.8277 18.6624C38.8277 15.7536 36.4611 13.3871 33.5523 13.3871C32.3044 13.3871 31.1008 13.8341 30.1552 14.6296L31.9566 15.7377C32.4442 15.4704 32.9888 15.3306 33.5523 15.3306C35.3895 15.3306 36.8841 16.8252 36.8841 18.6624C36.8841 20.4996 35.3894 21.9942 33.5523 21.9942C31.7751 21.9942 30.3187 20.5957 30.2254 18.8414L28.367 17.698C28.3077 18.0155 28.2769 18.3377 28.2769 18.6624ZM14.5078 22.4534H22.8874C23.9159 22.4534 24.7526 21.6166 24.7526 20.5881V15.1982C24.7526 13.9799 23.8553 12.9805 22.7116 12.7926C21.6668 12.6184 19.3231 13.2444 16.7113 11.373C14.8639 10.0491 13.1876 9.20396 12.6684 6.72158C12.4671 5.75949 12.5328 4.77388 12.8466 3.85998H12.1524C11.8288 3.85998 11.5665 3.59764 11.5665 3.27406C11.5665 2.95047 11.8288 2.68813 12.1524 2.68813H13.4088L14.0228 1.65603C14.1287 1.47815 14.0146 1.24409 13.8055 1.22909C10.1539 0.968076 6.92854 2.03798 4.61757 4.25404C5.63958 4.68677 6.3584 5.69995 6.3584 6.87783C6.3584 8.02148 5.68036 9.0092 4.70546 9.46177L5.74317 10.3604C6.09988 10.3154 6.46058 10.2925 6.81894 10.2925C11.5065 10.2925 15.3291 14.0998 15.3291 18.8027C15.3291 20.0739 15.0473 21.3183 14.5078 22.4534ZM11.4257 13.0952L10.1908 14.2696C10.1902 14.2701 10.1897 14.2706 10.1892 14.2711L6.03137 18.2251C5.9145 18.3362 5.84793 18.4862 5.84387 18.6473C5.83981 18.8084 5.8988 18.9615 6.00989 19.0785C6.12504 19.1995 6.28043 19.2661 6.44761 19.2661C6.60308 19.2661 6.75073 19.2071 6.86347 19.1L11.0204 15.1468C11.0217 15.1455 11.0229 15.1443 11.0243 15.1432L12.3005 13.9295C12.0321 13.6281 11.7396 13.349 11.4257 13.0952Z" fill="#5561B2"/>
<path d="M19.9996 19.1819H21.6825C22.0062 19.1819 22.2684 19.4442 22.2684 19.7679C22.2684 20.0915 22.0062 20.3538 21.6825 20.3538H19.9996C19.676 20.3538 19.4137 20.0915 19.4137 19.7679C19.4137 19.4442 19.676 19.1819 19.9996 19.1819Z" fill="#5561B2"/>
</svg>
