<svg width="22" height="22" viewBox="0 0 22 22" fill="none" xmlns="http://www.w3.org/2000/svg">
<path d="M4.18978 10.271H2.94499L4.10086 9.05815C4.32315 8.82492 4.32315 8.45174 4.10086 8.21851C3.87858 7.98527 3.52293 7.98527 3.30064 8.21851L2.47819 9.08147L1.16671 10.4576C0.944429 10.6908 0.944429 11.064 1.16671 11.2972L2.47819 12.6733L3.30064 13.5363C3.41178 13.6529 3.56738 13.7228 3.70075 13.7228C3.83412 13.7228 3.98972 13.6529 4.10086 13.5363C4.32315 13.303 4.32315 12.9298 4.10086 12.6966L2.94499 11.4605H4.18978C6.61268 11.4605 8.72438 12.9298 9.74688 15.0523C9.90248 14.5858 10.1025 14.1427 10.3248 13.6995C8.99112 11.6237 6.74605 10.271 4.18978 10.271Z" fill="#5561B2" stroke="#5561B2" stroke-width="0.5"/>
<path d="M20.8166 10.4343L19.5051 9.05822L18.7049 8.19525C18.4826 7.96202 18.127 7.96202 17.9047 8.19525C17.6824 8.42849 17.6824 8.80166 17.9047 9.0349L19.0606 10.2477H17.8158C15.2373 10.271 12.9922 11.6238 11.6585 13.6996C11.6363 13.7462 11.5918 13.8162 11.5696 13.8629C11.3473 14.236 11.1472 14.6092 10.9916 15.0057C10.6138 15.9153 10.4137 16.9416 10.4137 17.9911V20.3934C10.4137 20.72 10.6804 20.9998 10.9916 20.9998C11.3028 20.9998 11.5696 20.72 11.5696 20.3934V17.9911C11.5696 16.9416 11.8141 15.9386 12.2364 15.0524C13.2589 12.9299 15.3706 11.4605 17.7935 11.4605H19.0383L17.8824 12.6734C17.6602 12.9066 17.6602 13.2798 17.8824 13.513C17.9936 13.6296 18.1492 13.6996 18.2826 13.6996C18.4382 13.6996 18.5715 13.6296 18.6827 13.513L19.5051 12.65L20.8166 11.2739C21.0611 11.064 21.0611 10.6675 20.8166 10.4343Z" fill="#5561B2" stroke="#5561B2" stroke-width="0.5"/>
<path d="M9.25783 4.25362L10.4137 3.0408V11.9037C10.6138 12.137 10.8138 12.3702 10.9916 12.6267C11.1695 12.3702 11.3695 12.137 11.5696 11.9037V3.0408L12.7255 4.25362C12.8366 4.37024 12.9922 4.44021 13.1256 4.44021C13.2589 4.44021 13.4145 4.37024 13.5257 4.25362C13.748 4.02039 13.748 3.64721 13.5257 3.41398L11.3918 1.17493C11.1695 0.941691 10.8138 0.941691 10.5915 1.17493L8.45761 3.41398C8.23532 3.64721 8.23532 4.02039 8.45761 4.25362C8.67989 4.48686 9.03555 4.48686 9.25783 4.25362Z" fill="#5561B2" stroke="#5561B2" stroke-width="0.5"/>
</svg>
