<svg width="24" height="24" viewBox="0 0 24 24" fill="none" xmlns="http://www.w3.org/2000/svg">
<path d="M20.4517 0C19.8004 0.000227629 19.1677 0.216285 18.6523 0.61438C18.1369 1.01247 17.768 1.57016 17.6033 2.2002L14.3923 14.502C14.3402 14.6475 14.2444 14.7735 14.118 14.8626C13.9917 14.9517 13.8409 14.9997 13.6863 15H2.25029C1.88034 14.9999 1.51608 15.091 1.18977 15.2653C0.863452 15.4396 0.585157 15.6917 0.379531 15.9992C0.173904 16.3068 0.0472914 16.6603 0.0109072 17.0284C-0.0254769 17.3966 0.0294907 17.768 0.170941 18.1099L2.26932 23.1826C2.39469 23.429 2.58591 23.6359 2.82174 23.7801C3.05756 23.9244 3.32877 24.0005 3.60524 24H17.0759C17.4107 24.0004 17.736 23.8886 17.9999 23.6826C18.2638 23.4766 18.4511 23.1882 18.532 22.8633L23.3081 3.65478C23.416 3.22094 23.4237 2.76821 23.3306 2.33095C23.2375 1.89369 23.046 1.48338 22.7707 1.13114C22.4954 0.778895 22.1435 0.493973 21.7417 0.297986C21.3399 0.101999 20.8987 9.39449e-05 20.4517 0ZM21.8521 3.29151L17.0759 22.5L3.63008 22.5542L1.55658 17.5356C1.50962 17.4217 1.49147 17.2979 1.50373 17.1753C1.51599 17.0527 1.55828 16.935 1.62686 16.8326C1.69544 16.7302 1.7882 16.6463 1.89693 16.5883C2.00567 16.5303 2.12702 16.4999 2.25026 16.5H13.6863C14.1607 16.4964 14.6221 16.3443 15.0057 16.065C15.3893 15.7857 15.6758 15.3933 15.8249 14.9429L19.0549 2.57959C19.1507 2.21019 19.3889 1.89377 19.7174 1.69956C20.0459 1.50535 20.438 1.44916 20.8078 1.54329C21.1777 1.63741 21.4951 1.8742 21.6908 2.20183C21.8865 2.52945 21.9445 2.92126 21.852 3.29151H21.8521Z" fill="#5561B2"/>
</svg>
