<?xml version="1.0" standalone="no"?>
<!DOCTYPE svg PUBLIC "-//W3C//DTD SVG 20010904//EN"
 "http://www.w3.org/TR/2001/REC-SVG-20010904/DTD/svg10.dtd">
<svg version="1.0" xmlns="http://www.w3.org/2000/svg"
 width="554.000000pt" height="510.000000pt" viewBox="0 0 554.000000 510.000000"
 preserveAspectRatio="xMidYMid meet">
<metadata>
Created by potrace 1.16, written by Peter Selinger 2001-2019
</metadata>
<g transform="translate(0.000000,510.000000) scale(0.100000,-0.100000)"
fill="#000000" stroke="none">
<path d="M1084 4593 c-47 -45 -52 -53 -61 -113 -6 -39 -10 -348 -9 -782 1
-707 1 -717 22 -744 55 -74 137 -92 207 -44 70 48 67 4 67 852 0 707 -1 766
-18 797 -23 47 -61 72 -113 78 -41 4 -47 1 -95 -44z"/>
<path d="M2753 4624 c-63 -31 -76 -68 -81 -238 -2 -83 1 -234 7 -336 14 -220
14 -420 0 -436 -12 -14 -91 -23 -269 -29 -290 -10 -333 -27 -347 -134 -7 -52
11 -95 51 -124 l31 -22 667 -3 c609 -2 671 -1 700 14 42 22 64 47 79 91 19 59
-7 138 -55 166 -13 7 -75 13 -166 14 -124 2 -197 5 -362 12 l-28 1 0 453 c0
450 0 453 -22 497 -42 82 -127 112 -205 74z"/>
<path d="M4440 4633 c-8 -3 -34 -24 -57 -46 l-43 -41 0 -987 1 -987 22 -34
c58 -87 189 -89 250 -4 l22 31 0 985 c0 967 0 986 -20 1019 -33 56 -115 86
-175 64z"/>
<path d="M2761 2730 c-25 -4 -50 -15 -57 -25 -12 -16 -14 -194 -14 -1025 0
-1106 -4 -1032 60 -1065 69 -36 166 -8 207 60 17 28 18 81 21 985 2 646 0 967
-7 991 -6 20 -20 48 -32 63 -18 23 -27 26 -77 25 -31 -1 -77 -5 -101 -9z"/>
<path d="M465 2338 c-68 -39 -96 -147 -55 -213 42 -68 47 -69 334 -75 l259 -5
11 -35 c8 -25 9 -221 6 -665 -5 -554 -4 -634 10 -665 45 -103 199 -108 260 -8
19 32 20 52 20 693 0 363 4 665 8 672 5 8 80 13 263 15 l256 3 35 27 c49 38
73 101 59 154 -13 44 -24 60 -65 92 l-29 22 -676 0 c-487 -1 -682 -4 -696 -12z"/>
<path d="M3851 1930 c-76 -18 -121 -80 -121 -165 0 -54 16 -86 53 -107 15 -9
99 -14 279 -18 184 -4 261 -8 269 -17 10 -10 12 -119 11 -463 -2 -385 0 -455
13 -480 51 -99 191 -109 257 -18 l23 33 3 465 c2 348 6 466 15 472 7 5 121 8
254 7 222 -1 245 0 275 18 110 64 103 219 -12 266 -29 12 -146 15 -660 15
-344 0 -640 -3 -659 -8z"/>
</g>
</svg>
