<svg width="41" height="30" viewBox="0 0 41 30" fill="none" xmlns="http://www.w3.org/2000/svg">
<path d="M6.48615 21.3777C7.97879 21.3777 9.19312 22.592 9.19312 24.0848C9.19312 25.5774 7.97879 26.7917 6.48615 26.7917C4.99351 26.7917 3.77918 25.5774 3.77918 24.0848C3.77918 22.5921 4.99351 21.3777 6.48615 21.3777ZM6.48615 25.4511C7.23957 25.4511 7.8525 24.8382 7.8525 24.0848C7.8525 23.3313 7.23957 22.7183 6.48615 22.7183C5.73272 22.7183 5.11979 23.3313 5.11979 24.0848C5.11979 24.8381 5.73272 25.4511 6.48615 25.4511Z" fill="#5561B2"/>
<path d="M0.155701 18.814C1.72788 16.9292 4.03526 15.8482 6.48617 15.8482C6.89684 15.8482 7.30037 15.8789 7.69504 15.9371C7.9671 14.1728 9.6266 11.8376 11.2348 9.92725V4.24894C11.2348 4.03972 11.3326 3.84247 11.499 3.71565C11.6656 3.58874 11.882 3.54718 12.0833 3.60277L13.1758 3.90414C13.759 4.06501 14.2687 4.38265 14.6638 4.80351L15.2377 2.16384C15.3047 1.85568 15.5774 1.63591 15.8927 1.63591H17.0629V0.670307C17.0629 0.300119 17.3629 0 17.7332 0C18.1035 0 18.4035 0.300119 18.4035 0.670307V4.04446C18.4035 4.41464 18.1035 4.71476 17.7332 4.71476C17.3629 4.71476 17.0629 4.41464 17.0629 4.04446V2.97652H16.433L15.6073 6.77448C15.9606 7.14753 16.1995 7.60977 16.3001 8.11885L18.229 10.2393C18.4781 10.5132 18.4581 10.9372 18.1843 11.1863C18.0558 11.3032 17.8943 11.3607 17.7334 11.3607C17.5512 11.3607 17.3696 11.2869 17.2374 11.1415L16.0726 9.8612C15.9881 10.0317 15.8855 10.1949 15.7645 10.3478C15.0052 11.3072 13.9548 12.7746 13.2621 14.318C12.5148 15.9828 12.3382 17.3664 12.7372 18.4304C13.3196 19.9834 15.024 21.1782 17.2964 21.6265C19.7221 22.1053 22.1248 21.5949 23.2745 20.3568C23.781 19.8113 24.0078 19.2699 23.9679 18.7016C23.8971 17.6909 22.9988 16.4778 21.2982 15.096C21.2961 15.0943 21.1589 14.9407 21.1571 14.938C20.6321 14.1821 20.5661 13.2084 20.9882 12.3883C21.4153 11.5582 22.2606 11.0426 23.1941 11.0426H32.8657C34.7156 11.0426 36.2371 12.472 36.386 14.2842C36.7713 14.6762 37.6705 15.6355 38.5775 16.9254C40.185 19.2115 41 21.3451 41 23.2667C41 23.6369 40.7 23.937 40.3297 23.937H38.8983H38.0358C38.0372 23.9863 38.0389 24.0354 38.0389 24.0847C38.0389 27.1041 35.5825 29.5605 32.5631 29.5605C30.0224 29.5605 27.8807 27.8211 27.2653 25.4707H11.7839C11.1685 27.8211 9.02681 29.5605 6.48617 29.5605C3.46675 29.5605 1.01021 27.1041 1.01021 24.0847C1.01021 22.9782 1.34116 21.9481 1.9077 21.086L0.25267 19.7676C0.111549 19.6552 0.0217285 19.4907 0.00340652 19.3113C-0.0147362 19.1317 0.0401382 18.9524 0.155701 18.814ZM27.0831 12.3832H23.1941C22.7586 12.3832 22.3796 12.6144 22.1803 13.0016C22.0309 13.2919 22.0115 13.6134 22.1178 13.9055H27.0831V12.3832ZM32.8657 12.3832H28.4237V13.9055H34.9537C34.6697 13.0234 33.841 12.3832 32.8657 12.3832ZM32.5632 28.22C34.8434 28.22 36.6984 26.365 36.6984 24.0848C36.6984 24.0354 36.697 23.9862 36.6953 23.9371H35.2661C35.2687 23.9861 35.2702 24.0353 35.2702 24.0848C35.2702 25.5775 34.0559 26.7918 32.5632 26.7918C31.0706 26.7918 29.8562 25.5775 29.8562 24.0848C29.8562 24.0353 29.8577 23.9861 29.8603 23.9371H28.431C28.4293 23.9863 28.4279 24.0354 28.4279 24.0848C28.4278 26.3649 30.283 28.22 32.5632 28.22ZM33.9295 24.0848C33.9295 24.0351 33.9266 23.9858 33.9214 23.9371H31.2049C31.1996 23.9858 31.1967 24.0351 31.1967 24.0848C31.1967 24.8382 31.8096 25.4512 32.5632 25.4512C33.3165 25.4512 33.9295 24.8382 33.9295 24.0848ZM28.1642 22.5964H38.0126C37.7909 21.9556 37.3809 21.0144 36.6739 20.1074C35.0557 18.0311 32.6888 17.0868 29.6409 17.3013C28.2899 17.3963 27.4411 17.7522 27.1179 18.3594C26.6957 19.1531 27.0477 20.5776 28.1642 22.5964ZM14.7216 24.1302H27.0884C27.0883 24.115 27.0872 24.1 27.0872 24.0848C27.0872 23.8813 27.0995 23.6785 27.1217 23.4783C26.0839 21.6571 25.0504 19.3911 25.9346 17.7296C26.4891 16.6876 27.7045 16.0935 29.5469 15.964C33.9638 15.6534 36.4554 17.6235 37.7681 19.3309C38.7394 20.594 39.2142 21.8869 39.4208 22.5966H39.6194C39.2377 19.3259 36.2324 16.0493 35.4506 15.2463H23.4627C24.6248 16.4331 25.2304 17.5414 25.3053 18.6079C25.3716 19.5532 25.0189 20.4486 24.257 21.2691C22.7804 22.8593 19.9464 23.5158 17.0371 22.9418C16.0939 22.7558 15.2289 22.4538 14.4697 22.0562C14.6348 22.7055 14.7228 23.3851 14.7228 24.0849C14.7227 24.0999 14.7217 24.115 14.7216 24.1302ZM12.8194 5.19649L12.5755 5.12919V8.40798C13.2648 7.66036 13.8498 7.07183 14.18 6.7466C14.076 6.01498 13.5465 5.39705 12.8194 5.19649ZM14.7134 9.51577C14.9462 9.22164 15.0488 8.85413 15.0022 8.481C14.9799 8.30225 14.9249 8.13315 14.8409 7.98014C12.8953 9.93851 9.20037 14.0721 9.00545 16.2428C9.79248 16.4963 10.5281 16.865 11.1925 17.3293C11.1547 15.5824 11.9199 13.0454 14.7134 9.51577ZM6.48617 28.22C8.76637 28.22 10.6215 26.365 10.6215 24.0848C10.6215 21.8046 8.76637 19.9495 6.48617 19.9495C4.20596 19.9495 2.35082 21.8046 2.35082 24.0848C2.35082 26.365 4.20596 28.22 6.48617 28.22ZM2.77499 20.0628C3.75149 19.161 5.05537 18.6088 6.48617 18.6088C9.50559 18.6088 11.9621 21.0653 11.9621 24.0847C11.9621 24.0999 11.9611 24.1149 11.961 24.1301H13.3811C13.3812 24.1149 13.3822 24.0999 13.3822 24.0847C13.3822 20.2822 10.2887 17.1887 6.48626 17.1887C4.66436 17.1887 2.93694 17.9024 1.65075 19.1672L2.77499 20.0628Z" fill="#5561B2"/>
</svg>
